<svg viewBox="0 0 90 90" xmlns="http://www.w3.org/2000/svg"><defs><linearGradient x1="165.934%" y1="-269.413%" x2="-41.286%" y2="304.84%" id="a"><stop stop-color="#2AC4F3" offset="0%"/><stop stop-color="#00B2E2" offset="50%"/><stop stop-color="#0095DA" offset="100%"/></linearGradient><linearGradient x1="75.725%" y1="27.79%" x2="-4.42%" y2="186.785%" id="b"><stop stop-color="#2AC4F3" offset="0%"/><stop stop-color="#00B2E2" offset="50%"/><stop stop-color="#0095DA" offset="100%"/></linearGradient><linearGradient x1="114.846%" y1="-132.376%" x2="-71.156%" y2="394.679%" id="c"><stop stop-color="#2AC4F3" offset="0%"/><stop stop-color="#00B2E2" offset="50%"/><stop stop-color="#0095DA" offset="100%"/></linearGradient><linearGradient x1="81.405%" y1="-14.825%" x2="38.525%" y2="59.249%" id="d"><stop stop-color="#2AC4F3" offset="0%"/><stop stop-color="#00B2E2" offset="50%"/><stop stop-color="#0095DA" offset="100%"/></linearGradient><linearGradient x1="125.446%" y1="-5.462%" x2="35.579%" y2="56.255%" id="e"><stop stop-color="#2AC4F3" offset="0%"/><stop stop-color="#00B2E2" offset="50%"/><stop stop-color="#0095DA" offset="100%"/></linearGradient></defs><g fill="none" fill-rule="evenodd"><path fill="#FFF" d="M0 0h90v90H0z"/><g fill-rule="nonzero"><path d="M26.472 57.809c-.335-4.718 1.174-11.12 3.52-17.775-4.274 2.106-8.13 4.465-11.482 6.992-4.106 11.71 0 25.273 10.058 32.602 1.257.926 2.598 1.769 4.022 2.443 4.023 2.021 8.381 2.948 12.656 2.948-.084-.084-17.6-11.12-18.774-27.21Zm8.717-30.917c5.196-11.71 10.727-21.481 10.727-21.481l-.754-1.18c-4.693 7.245-9.47 14.49-14.164 21.65l4.19 1.011ZM28.4 30.01c-2.095 3.286-4.19 6.487-6.202 9.772l9.806-5.223c.503-1.18.922-2.443 1.425-3.622-1.677-.421-3.437-.674-5.029-.927Z" fill="#E6E7E8"/><path d="M15.022 29.056c-.929-.168-1.857-.337-2.7-.421-.17 0-.254 0-.423-.084-2.363 3.705-4.726 7.327-7.004 11.033-.085.084-.085.168-.17.252l5.064-2.695c1.773-2.61 3.46-5.39 5.233-8.085Z" fill="url(#a)" transform="translate(14.571 1.63)"/><path d="m17.638 25.013 5.823-8.843c2.278-3.453 4.641-6.99 6.92-10.611 2.279 3.537 4.641 7.074 6.92 10.527l6.076 9.349 3.038-.674c-2.278-3.453-4.472-6.906-6.667-10.275-2.616-4.043-5.316-8.17-8.017-12.296L30.381.337 29.199 2.19a1580.75 1580.75 0 0 1-8.186 12.38c-2.194 3.285-4.388 6.654-6.582 10.022h1.688l1.519.421Z" fill="url(#b)" transform="translate(14.571 1.63)"/><path d="m51.141 37.478 5.486 3.369c-.253-.421-.422-.758-.675-1.18-2.363-3.705-4.726-7.41-7.174-11.116-.422.084-.928.084-1.35.168l-1.772.253c1.772 2.78 3.629 5.558 5.485 8.506Z" fill="url(#c)" transform="translate(14.571 1.63)"/><path d="M59.412 47.837c-1.266-1.01-2.616-1.937-4.051-2.948 3.038 7.16 2.87 15.497-.675 22.572a26.623 26.623 0 0 1-8.524 9.853c-4.557 3.2-10.211 5.054-15.781 5.054-4.22 0-8.27-.927-12.068-2.78a28.286 28.286 0 0 1-3.798-2.274c-5.4-3.958-9.198-9.853-10.549-16.591C2.785 55.08 3.46 49.437 5.74 44.3c-1.435 1.01-2.87 2.021-4.136 3.116a30.505 30.505 0 0 0-.422 13.812c1.52 7.412 5.655 13.98 11.647 18.36 1.35.927 2.784 1.853 4.22 2.527 4.05 2.021 8.523 3.032 13.08 3.032h.253c6.16-.084 12.406-2.022 17.469-5.643 3.966-2.78 7.258-6.57 9.367-10.864 3.292-6.485 3.967-13.981 2.195-20.803Z" fill="url(#d)" transform="translate(14.571 1.63)"/><path d="M16.119 63.418s4.304 7.748 14.262 7.748c9.452 0 14.262-7.748 14.262-7.748-15.697 10.19-28.524 0-28.524 0Z" fill="url(#e)" transform="translate(14.571 1.63)"/><path d="M5.753 58.987c-.667 3.14.25 4.793.75 5.701 1.419 2.397 4.004 3.884 7.674 4.38h.083s.667.165 1.668.165c.417.992.918 1.9 1.418 2.81h-.75c-1.502 0-2.67-.166-2.836-.248-4.587-.661-7.923-2.645-9.758-5.784-.918-1.57-1.919-4.628-.918-8.429.084.166 1.251.992 2.67 1.405Zm34.779-26.441a56.27 56.27 0 0 0-4.67-1.24c-1.085.413-2.169.827-3.253 1.322-9.008 3.719-16.597 8.511-21.935 13.717a5.132 5.132 0 0 0-2.502-.661c-3.003 0-5.421 2.396-5.421 5.37 0 2.975 2.418 5.372 5.42 5.372 3.003 0 5.422-2.397 5.422-5.371 0-.992-.334-1.983-.834-2.81 5.088-4.875 12.51-9.585 21.017-13.138 2.169-.826 4.504-1.735 6.756-2.561ZM8.088 54.029c-1.584 0-2.919-1.322-2.919-2.892 0-1.57 1.335-2.892 2.92-2.892 1.584 0 2.918 1.322 2.918 2.892 0 1.653-1.334 2.892-2.919 2.892Zm41.618-24.293c4.087-1.074 7.924-1.9 11.427-2.396 8.423-1.157 12.343.083 13.177 1.653.75 1.404-.167 4.296-2.585 7.767l2.335 1.57c3.17-4.545 4.087-8.18 2.752-10.66-3.002-5.618-17.014-4.13-31.943.414" fill="#404041"/><path d="M44.952 28.249c-14.845-4.545-28.857-6.032-31.943-.413-1.334 2.479-.417 6.114 2.752 10.66l2.336-1.57c-2.419-3.471-3.42-6.28-2.586-7.768.834-1.57 4.754-2.81 13.178-1.735 7.923.991 17.681 3.8 27.523 7.932C70.307 41.222 81.066 49.98 83.735 57.83c.917 2.644.75 5.04-.334 7.024-1.418 2.396-4.003 3.883-7.756 4.38 0 0-.25 0-.668.082-.166.495-.417.909-.667 1.322-.25.496-.5.991-.834 1.57 1.501 0 2.502-.166 2.586-.166a11.907 11.907 0 0 0 1.668-.33 7.952 7.952 0 0 0 1.5-.413l.752-.248c2.585-.992 4.587-2.644 5.838-4.793 1.584-2.644 1.751-5.866.584-9.337-2.92-8.676-14.096-17.93-29.108-24.127a85.8 85.8 0 0 0-7.673-2.892l-4.67-1.653Zm-18.765-9.502a2.29 2.29 0 0 1-1.585-.661 2.247 2.247 0 0 1-.667-1.57c0-.579.25-1.157.667-1.57a2.29 2.29 0 0 1 1.585-.661 2.29 2.29 0 0 1 1.584.66c.417.414.668.992.668 1.57 0 .58-.25 1.158-.668 1.57a2.29 2.29 0 0 1-1.584.662Z" fill="#4B4A4B"/><path d="M82.817 41.635a2.29 2.29 0 0 1-1.584-.661 2.247 2.247 0 0 1-.668-1.57c0-.578.25-1.157.668-1.57a2.29 2.29 0 0 1 1.584-.661 2.29 2.29 0 0 1 1.585.661c.417.413.667.992.667 1.57 0 .578-.25 1.157-.667 1.57-.417.496-.918.661-1.585.661Z" fill="#404041"/></g></g></svg>